<?xml version="1.0" encoding="UTF-8"?>
<svg width="54px" height="65px" viewBox="0 0 54 65" version="1.1" xmlns="http://www.w3.org/2000/svg" xmlns:xlink="http://www.w3.org/1999/xlink">
    <!-- Generator: Sketch 50.2 (55047) - http://www.bohemiancoding.com/sketch -->
    <title>rocket</title>
    <desc>Created with Sketch.</desc>
    <defs></defs>
    <g id="Page-1" stroke="none" stroke-width="1" fill="none" fill-rule="evenodd" opacity="0.9">
        <g id="Homepage" transform="translate(-693.000000, -1677.000000)" fill="#F95454" fill-rule="nonzero">
            <g id="Features" transform="translate(0.000000, 1166.000000)">
                <g id="Content-5" transform="translate(559.000000, 511.000000)">
                    <g id="rocket" transform="translate(134.000000, 0.000000)">
                        <g id="rocket-rocket">
                            <g>
                                <path d="M53.4807863,45.7831621 C53.3443115,45.458928 53.1562509,45.0070557 52.9196335,44.4607146 C51.9732733,42.2729755 50.5901846,39.0017314 49.191894,35.6948597 C46.3589356,28.992774 44.4662152,24.5282329 44.0233646,23.734023 C43.3409388,22.0994983 41.420908,19.4878755 38.5243134,19.9201448 C38.2937469,18.7556344 37.9722403,17.5435453 37.5293898,16.2286725 C36.2645517,12.451027 34.5629917,8.08098045 33.0919206,4.83007302 C32.0545556,2.53281213 30.3560114,0.961768567 29.2094821,0.475098765 C27.7330574,-0.149827967 26.0375161,-0.159661631 24.384442,0.453951241 C22.9982988,0.973861142 21.3816472,2.77235322 20.4504502,4.83006659 C18.9429694,8.18071362 17.2444252,12.5492864 16.0160033,16.2286661 C15.5792167,17.5389824 15.2607324,18.7450413 15.0271694,19.8997181 C12.3913836,19.7946948 10.6381926,22.1811022 10.0528227,23.6108319 C9.55841867,24.5131092 7.71123295,28.8582369 4.95407731,35.3843205 C3.51637418,38.7969106 2.07258125,42.2042171 1.09289183,44.4584493 C1.07466763,44.4977324 1.05647572,44.5407804 1.04433487,44.5816339 C0.825967406,45.079579 0.650047724,45.4974582 0.534761275,45.7793329 C-0.1476645,47.3987339 -0.178003719,48.6441339 0.449846334,49.5864795 C1.03222631,50.4592493 2.07863876,50.902073 3.5679276,50.9050913 L14.9574177,50.902073 C15.1181742,50.902073 15.2728732,50.8658082 15.4154314,50.809123 C15.5579895,50.8658146 15.7126627,50.902073 15.8764738,50.902073 L19.9257134,50.902073 L19.9226911,54.9645795 L17.8935282,62.2658879 C17.7539923,62.7759641 17.9420529,63.3170215 18.3697015,63.6283715 C18.7943537,63.9374626 19.3676151,63.957825 19.8165168,63.668472 L23.9143197,61.0235705 L26.0284299,64.3991428 C26.2589382,64.7709493 26.6623633,64.9977092 27.0961017,64.9999681 L27.1112972,64.9999681 C27.5389458,64.9999681 27.9393486,64.7845285 28.175908,64.4264171 L30.307519,61.1807547 L33.9714931,63.4968978 C34.4295391,63.7817844 35.0210312,63.7583458 35.4426224,63.4221092 C35.8672423,63.0895795 36.0341144,62.5258943 35.8611848,62.0142478 L33.6257694,55.5018656 L33.6257694,50.9050913 L37.6688933,50.9050913 C37.9328213,50.9050913 38.1633296,50.8076171 38.366521,50.6708597 C38.5697834,50.8076171 38.8002918,50.9050913 39.0611264,50.9050913 L50.4445654,50.9050913 C51.9308255,50.9050913 52.980299,50.4607552 53.5656754,49.5879854 C54.1905225,48.6441339 54.1632185,47.3987339 53.4807863,45.7831621 Z M14.6025495,23.874571 L14.6025495,48.3629542 L3.57095636,48.3660304 C2.77323768,48.3660304 2.57609733,48.1846547 2.57609733,48.1846547 C2.57306858,48.1808834 2.43051041,47.8415641 2.89458164,46.7436111 C3.01894144,46.4330141 3.20697614,45.9954676 3.43448153,45.4740775 C3.45267344,45.4294527 3.47087181,45.3879106 3.48301266,45.3433567 C4.46878542,43.0823349 5.88526789,39.7301433 7.30175036,36.3711686 C9.41888926,31.3617988 11.8211445,25.6829097 12.3458812,24.7050522 C12.354961,24.6823988 13.2588476,22.6050503 14.6723013,22.4350141 C14.6328888,22.9194057 14.6025495,23.4015191 14.6025495,23.874571 Z M30.6138237,58.3658493 C30.0253604,57.9932899 29.2458724,58.1625988 28.8667226,58.7421864 L27.1355789,61.3696795 L25.3914742,58.5827433 C25.2094647,58.2918201 24.9213196,58.0870572 24.5876722,58.0144696 C24.2570535,57.9419399 23.9021789,58.0008324 23.6170625,58.1874918 L21.2481688,59.7170255 L22.0610507,56.7932676 L31.3751522,56.7894963 L32.2759777,59.4185597 L30.6138237,58.3658493 Z M22.473562,54.2542067 L22.473562,50.9035854 L31.0779273,50.9035854 L31.0779273,54.2504354 L22.473562,54.2542067 Z M36.394969,48.3660304 L17.1503981,48.3629542 L17.1503981,23.874571 C17.1503981,21.8259448 17.5568197,19.652628 18.4333958,17.0296656 C19.6193764,13.4810067 21.324004,9.09660223 22.773848,5.87211956 C23.5715602,4.10536164 24.8212351,3.0036052 25.27622,2.83356906 C26.3105239,2.44513936 27.3448278,2.44438639 28.2123564,2.81088342 C28.6665535,3.00662352 29.9404778,4.04565817 30.7655005,5.87211956 C32.2062259,9.05200966 33.8714732,13.3313973 35.1119714,17.0326775 C35.985551,19.6337136 36.394969,21.8093215 36.394969,23.874571 C36.3980624,26.331275 36.394969,43.5183691 36.394969,48.3660304 Z M51.4425113,48.1808834 C51.4394825,48.1846547 51.2423422,48.3660304 50.4445654,48.3660304 L39.0611264,48.3660304 C39.0186851,48.3660304 38.9853235,48.3857042 38.9459045,48.3902285 L38.9459045,23.874571 C38.9459045,23.3977478 38.912543,22.9156087 38.8760946,22.4282181 C38.8822102,22.4282181 38.89129,22.4327423 38.9004344,22.4304834 C40.5473865,22.1297201 41.657532,24.6846512 41.724255,24.8289834 C42.2065827,25.7070691 44.6967816,31.5998275 46.8927198,36.7966418 C48.2758731,40.0732918 49.6377669,43.3022344 50.5780115,45.4740775 C50.8116067,46.0037631 50.9966384,46.4450874 51.1300845,46.7654795 C51.5850372,47.8445824 51.4425113,48.1808834 51.4425113,48.1808834 Z" id="Shape"></path>
                                <path d="M26.7685035,22.1289668 C22.919433,22.1289668 19.7861821,25.2514188 19.7861821,29.0909946 C19.7861821,32.9298173 22.919433,36.0522693 26.7685035,36.0522693 C30.6198794,36.0522693 33.7592136,32.9298173 33.7622424,29.0902416 C33.7622424,25.2514188 30.6229663,22.1289668 26.7685035,22.1289668 Z M26.7685035,33.9189822 C24.0993561,33.9189822 21.9276027,31.7524871 21.924574,29.0909946 C21.9276027,26.428749 24.0993561,24.2622218 26.7685035,24.2622218 C29.4430173,24.2622218 31.6207895,26.427996 31.6207895,29.0894886 C31.6177607,31.7524871 29.4399886,33.9189822 26.7685035,33.9189822 Z" id="Shape"></path>
                            </g>
                        </g>
                    </g>
                </g>
            </g>
        </g>
    </g>
</svg>