<?xml version="1.0" encoding="UTF-8"?>
<svg width="60px" height="58px" viewBox="0 0 60 58" version="1.1" xmlns="http://www.w3.org/2000/svg" xmlns:xlink="http://www.w3.org/1999/xlink">
    <!-- Generator: Sketch 50.2 (55047) - http://www.bohemiancoding.com/sketch -->
    <title>pc-graphs</title>
    <desc>Created with Sketch.</desc>
    <defs></defs>
    <g id="Page-1" stroke="none" stroke-width="1" fill="none" fill-rule="evenodd" opacity="0.9">
        <g id="Homepage" transform="translate(-690.000000, -1372.000000)" fill="#F95454" fill-rule="nonzero">
            <g id="Features" transform="translate(0.000000, 1166.000000)">
                <g id="Content-2" transform="translate(559.000000, 206.000000)">
                    <g id="pc-graphs" transform="translate(131.000000, 0.000000)">
                        <g id="pc-graphs-pc-graphs">
                            <g>
                                <path d="M55.7578099,36.7599819 L55.7578099,0 L4.5761703,0 L4.5761703,36.7599819 L0,36.7599819 L0,57.5863267 L60,57.5863267 L60,36.7599819 L55.7578099,36.7599819 Z M7.43261584,2.85235675 L52.9013347,2.85235675 L52.9013347,36.7599819 L7.43261584,36.7599819 L7.43261584,2.85235675 Z M57.1420752,54.7310751 L2.85644554,54.7310751 L2.85644554,39.6137267 L57.1420752,39.6137267 L57.1420752,54.7310751 L57.1420752,54.7310751 Z" id="Shape"></path>
                                <path d="M9.73827921,34.2630842 L50.434598,34.2630842 L50.434598,5.11081063 L9.73827921,5.11081063 L9.73827921,34.2630842 Z M12.5947248,7.96461479 L47.5781228,7.96461479 L47.5781228,31.40928 L41.2646198,31.40928 L12.5947248,31.40928 L12.5947248,7.96461479 Z" id="Shape"></path>
                                <rect id="Rectangle-path" x="38.1533465" y="45.5173115" width="13.3945366" height="2.85380416"></rect>
                                <rect id="Rectangle-path" x="8.18261584" y="44.3646827" width="5.16945149" height="5.15611353"></rect>
                                <rect id="Rectangle-path" x="16.7402317" y="44.3646827" width="5.16942178" height="5.15611353"></rect>
                                <rect id="Rectangle-path" x="15.0205069" y="13.6721638" width="8.6103505" height="1.36622336"></rect>
                                <rect id="Rectangle-path" x="15.0205069" y="10.5448753" width="5.28222772" height="1.36761145"></rect>
                                <path d="M43.8574218,23.7898678 C43.8574218,22.7469518 43.0268436,21.9080681 41.9941426,21.8590636 L37.8061426,14.1936544 C37.9409109,13.9296079 38.0346594,13.6422189 38.0346594,13.3255138 C38.0346594,12.2503929 37.1601624,11.3771567 36.0849386,11.3771567 C35.0097743,11.3771567 34.1338218,12.2503929 34.1338218,13.3255138 C34.1338218,13.6224593 34.212897,13.8967029 34.3330455,14.1497396 L26.9443366,25.3243175 C26.7407347,25.2519053 26.529802,25.1940917 26.3012851,25.1940917 C25.8955069,25.1940917 25.5410139,25.3477194 25.2290198,25.5598013 L19.8251941,20.7832427 C19.9160139,20.5594628 19.9716772,20.3173708 19.9716772,20.06138 C19.9716772,18.9877599 19.0971564,18.1144704 18.0219861,18.1144704 C16.9453129,18.1144704 16.0708158,18.9877599 16.0708158,20.06138 C16.0708158,21.1365009 16.9453129,22.0111845 18.0219861,22.0111845 C18.2578099,22.0111845 18.4790198,21.9534303 18.6899584,21.8759165 L24.3955069,26.9223112 C24.3867208,26.9976835 24.3515644,27.0642409 24.3515644,27.1424488 C24.3515644,28.2175697 25.2260614,29.0908058 26.3012851,29.0908058 C27.3779287,29.0908058 28.2524554,28.2175697 28.2524554,27.1424488 C28.2524554,26.8865114 28.1967624,26.6444253 28.1059723,26.4198861 L35.5458713,15.1649055 C35.7216535,15.2161167 35.8945307,15.2738709 36.0849327,15.2738709 C36.250503,15.2738709 36.3998851,15.2182581 36.5536812,15.1788101 L40.5161287,22.4317594 C40.1718772,22.782811 39.9565307,23.2611401 39.9565307,23.7898678 C39.9565307,24.8649887 40.8310277,25.7382248 41.9062515,25.7382248 C42.9814752,25.7382248 43.8574218,24.8649887 43.8574218,23.7898678 Z M17.6425782,20.06138 C17.6425782,19.8536997 17.812503,19.6854733 18.0219861,19.6854733 C18.2285168,19.6854733 18.3984356,19.8536997 18.3984356,20.06138 C18.3984356,20.2705612 18.2285168,20.4402409 18.0219861,20.4402409 C17.812503,20.4402409 17.6425782,20.2705612 17.6425782,20.06138 Z M26.3012851,27.5213097 C26.0947248,27.5213097 25.9248059,27.3516358 25.9248059,27.1424488 C25.9248059,26.9347684 26.0947248,26.7650946 26.3012851,26.7650946 C26.5107446,26.7650946 26.6806634,26.9347684 26.6806634,27.1424488 C26.6806634,27.3516358 26.5107446,27.5213097 26.3012851,27.5213097 Z M35.7070337,13.3255138 C35.7070337,13.1163268 35.8769525,12.9481004 36.0849327,12.9481004 C36.2929663,12.9481004 36.4614416,13.1163268 36.4614416,13.3255138 C36.4614416,13.7423753 35.7070337,13.7423753 35.7070337,13.3255138 Z M41.529802,23.7898678 C41.529802,23.5821874 41.6982059,23.4125136 41.9062515,23.4125136 C42.1142851,23.4125136 42.2841505,23.5821874 42.2841505,23.7898678 C42.2841505,24.2067885 41.529802,24.2067885 41.529802,23.7898678 Z" id="Shape"></path>
                            </g>
                        </g>
                    </g>
                </g>
            </g>
        </g>
    </g>
</svg>