<?xml version="1.0" encoding="UTF-8"?>
<svg width="60px" height="49px" viewBox="0 0 60 49" version="1.1" xmlns="http://www.w3.org/2000/svg" xmlns:xlink="http://www.w3.org/1999/xlink">
    <!-- Generator: Sketch 50.2 (55047) - http://www.bohemiancoding.com/sketch -->
    <title>window-graphs</title>
    <desc>Created with Sketch.</desc>
    <defs></defs>
    <g id="Page-1" stroke="none" stroke-width="1" fill="none" fill-rule="evenodd" opacity="0.9">
        <g id="Homepage" transform="translate(-1080.000000, -1677.000000)" fill="#F95454" fill-rule="nonzero">
            <g id="Features" transform="translate(0.000000, 1166.000000)">
                <g id="Content-6" transform="translate(947.000000, 511.000000)">
                    <g id="window-graphs" transform="translate(133.000000, 0.000000)">
                        <g id="window-graphs-window-graphs">
                            <g>
                                <path d="M0,0 L0,48.6130182 L59.7331509,48.6130182 L59.7331509,0 L0,0 Z M57.0192727,45.9023852 L2.71526204,45.9023852 L2.71526204,10.0561952 L57.0192727,10.0561952 L57.0192727,45.9023852 Z M57.0192727,7.3442338 L2.71526204,7.3442338 L2.71526204,2.71196143 L57.0192727,2.71196143 L57.0192727,7.3442338 Z" id="Shape"></path>
                                <rect id="Rectangle-path" x="5.95691508" y="3.67279585" width="3.67637435" height="2.71060352"></rect>
                                <rect id="Rectangle-path" x="13.3124612" y="3.67279585" width="3.6791481" height="2.71060352"></rect>
                                <rect id="Rectangle-path" x="20.6707574" y="3.67279585" width="3.67776419" height="2.71060352"></rect>
                                <rect id="Rectangle-path" x="6.35692611" y="16.3023157" width="7.60690439" height="25.2978405"></rect>
                                <rect id="Rectangle-path" x="16.5888245" y="23.2208738" width="7.60692805" height="18.3792823"></rect>
                                <rect id="Rectangle-path" x="26.8207466" y="29.2229953" width="7.60690439" height="12.3771609"></rect>
                                <path d="M45.8984918,28.2732308 C44.6748789,28.2732308 43.7943354,28.0403018 43.3498498,27.5966426 C42.9998608,27.2444772 43.0026228,26.8230169 43.0040126,26.588671 C43.0040126,26.1921136 42.6818498,25.8843165 42.2859905,25.8829349 L42.2846066,25.8829349 C41.8873634,25.8829349 41.5651474,26.218463 41.5623737,26.6149908 C41.5609898,26.9172264 41.558216,27.8351036 42.3290221,28.6114983 C42.9970812,29.281232 44.0790141,29.6333915 45.5123377,29.6902408 L45.5123377,31.1987503 C45.5123377,31.5966892 45.8359968,31.9196773 46.2345706,31.9196773 C46.6331978,31.9196773 46.9554197,31.5966892 46.9554197,31.1987503 L46.9554197,29.6541498 C48.2359742,29.514161 49.2207077,29.1120657 49.8776186,28.442397 C50.8720573,27.4302453 50.8484893,26.1435949 50.8373529,25.526619 L50.8345792,25.386577 C50.8345792,24.5990534 49.9970672,21.6597009 45.8984977,21.6597009 C43.0040185,21.6597009 43.0040185,20.7654277 43.0040185,19.9737241 L43.0040185,19.8849934 C43.0026287,19.3054369 43.0012448,18.7064799 43.3929405,18.3182531 C43.8026626,17.9050938 44.6707272,17.6887962 45.8984977,17.6887962 C47.0359352,17.6887962 47.8859794,17.9411552 48.3595804,18.4153142 C48.7831535,18.8381914 48.7900909,19.3193053 48.7900909,19.3553667 C48.7790018,19.7491256 49.087349,20.0777106 49.4831551,20.0929605 C49.8400873,20.101291 50.2151523,19.8004133 50.2303991,19.402498 C50.2359466,19.2943374 50.2526304,18.3043847 49.4192761,17.4392299 C48.8359434,16.8319424 47.9957168,16.4603765 46.922046,16.3189471 L46.922046,14.7494378 C46.922046,14.35291 46.5998832,14.0298688 46.2012561,14.0298688 C45.802629,14.0298688 45.4804662,14.35291 45.4804662,14.7494378 L45.4804662,16.2607163 C44.040158,16.3161841 43.0179405,16.6544752 42.3706756,17.3005989 C41.5596118,18.113055 41.5610016,19.1806685 41.5623855,19.8877624 L41.5623855,19.9737241 C41.5623855,22.1366584 42.8998877,23.0988743 45.8985037,23.0988743 C49.2248772,23.0988743 49.3915623,25.3671766 49.3943301,25.386577 L49.39572,25.5543263 C49.4054192,26.0410017 49.419282,26.8534578 48.8484283,27.4357833 C48.3012371,27.9918125 47.3081883,28.2732308 45.8984918,28.2732308 Z" id="Shape"></path>
                                <rect id="Rectangle-path" x="41.4415471" y="34.2101725" width="10.4527277" height="1.17993046"></rect>
                                <rect id="Rectangle-path" x="41.4415471" y="37.1398426" width="10.4527277" height="1.17710247"></rect>
                                <rect id="Rectangle-path" x="41.4415471" y="40.4840003" width="10.4527277" height="1.17992456"></rect>
                            </g>
                        </g>
                    </g>
                </g>
            </g>
        </g>
    </g>
</svg>