<?xml version="1.0" encoding="UTF-8"?>
<svg width="60px" height="53px" viewBox="0 0 60 53" version="1.1" xmlns="http://www.w3.org/2000/svg" xmlns:xlink="http://www.w3.org/1999/xlink">
    <!-- Generator: Sketch 50.2 (55047) - http://www.bohemiancoding.com/sketch -->
    <title>binders</title>
    <desc>Created with Sketch.</desc>
    <defs></defs>
    <g id="Page-1" stroke="none" stroke-width="1" fill="none" fill-rule="evenodd" opacity="0.9">
        <g id="Homepage" transform="translate(-1080.000000, -1372.000000)" fill="#F95454" fill-rule="nonzero">
            <g id="Features" transform="translate(0.000000, 1166.000000)">
                <g id="Content-3" transform="translate(949.000000, 206.000000)">
                    <g id="binders" transform="translate(131.000000, 0.000000)">
                        <g id="binders-binders">
                            <g>
                                <path d="M0,52.1560106 L17.850356,52.1560106 L17.850356,0 L0,0 L0,52.1560106 Z M2.68787029,2.68026439 L15.1610481,2.68026439 L15.1610481,49.4757991 L2.68787029,49.4757991 L2.68787029,2.68026439 Z" id="Shape"></path>
                                <path d="M8.9237256,37.2567744 C6.87075969,37.2567744 5.2028291,38.9199706 5.2028291,40.9642127 C5.2028291,43.0113278 6.87075969,44.6730846 8.9237256,44.6730846 C10.9737572,44.6730846 12.6416878,43.0113278 12.6416878,40.9642127 C12.6416878,38.9199706 10.9737572,37.2567744 8.9237256,37.2567744 Z M8.9237256,42.7505464 C7.93575089,42.7505464 7.13228344,41.9508226 7.13228344,40.9642127 C7.13228344,39.9804759 7.93575089,39.1807521 8.9237256,39.1807521 C9.91170031,39.1807521 10.7122335,39.9804759 10.7122335,40.9642127 C10.7122335,41.9508167 9.91170031,42.7505464 8.9237256,42.7505464 Z" id="Shape"></path>
                                <rect id="Rectangle-path" x="7.38945878" y="7.06424794" width="3.06999489" height="21.9910165"></rect>
                                <path d="M20.8317092,52.1560106 L38.6791898,52.1560106 L38.6791898,0 L20.8317092,0 L20.8317092,52.1560106 Z M23.5210172,2.68026439 L35.9898524,2.68026439 L35.9898524,8.62891892 L23.5210172,8.62891892 L23.5210172,2.68026439 Z M23.5210172,11.3091892 L35.9898524,11.3091892 L35.9898524,18.2488073 L23.5210172,18.2488073 L23.5210172,11.3091892 Z M23.5210172,20.9290776 L35.9898524,20.9290776 L35.9898524,49.4757991 L23.5210172,49.4757991 L23.5210172,20.9290776 Z" id="Shape"></path>
                                <path d="M29.7554348,37.2567744 C27.703936,37.2567744 26.0360054,38.9199706 26.0360054,40.9642127 C26.0360054,43.0113278 27.703936,44.6745182 29.7554348,44.6745182 C31.8069335,44.6745182 33.4748641,43.011322 33.4748641,40.9642127 C33.4748641,38.9199706 31.8069335,37.2567744 29.7554348,37.2567744 Z M29.7554348,42.7505464 C28.7674601,42.7505464 27.9640221,41.9508226 27.9640221,40.9642127 C27.9640221,39.9804759 28.7674601,39.1807521 29.7554348,39.1807521 C30.7448472,39.1807521 31.5454098,39.9804759 31.5454098,40.9642127 C31.5454098,41.9508167 30.7448472,42.7505464 29.7554348,42.7505464 Z" id="Shape"></path>
                                <path d="M41.6619807,0 L41.6619807,52.1560106 L59.5108696,52.1560106 L59.5108696,0 L41.6619807,0 Z M56.8230287,49.4757991 L44.3513181,49.4757991 L44.3513181,2.68026439 L56.8230287,2.68026439 L56.8230287,49.4757991 L56.8230287,49.4757991 Z" id="Shape"></path>
                                <path d="M50.5871145,44.6730846 C52.6386722,44.6730846 54.3065439,43.0113278 54.3065439,40.9642127 C54.3065439,38.9199706 52.6386722,37.2567744 50.5871145,37.2567744 C48.5356747,37.2567744 46.8676852,38.9199706 46.8676852,40.9642127 C46.8676852,43.011322 48.5356747,44.6730846 50.5871145,44.6730846 Z M50.5871145,39.1807521 C51.5750892,39.1807521 52.3770895,39.9804759 52.3770895,40.9642127 C52.3770895,41.9508226 51.5750892,42.7505464 50.5871145,42.7505464 C49.5991457,42.7505464 48.7971395,41.9508226 48.7971395,40.9642127 C48.7971395,39.9804759 49.5991457,39.1807521 50.5871145,39.1807521 Z" id="Shape"></path>
                                <rect id="Rectangle-path" x="46.4507497" y="8.47391892" width="8.27135684" height="2.67880141"></rect>
                                <rect id="Rectangle-path" x="46.4507497" y="15.3440188" width="8.27135684" height="2.68024089"></rect>
                                <rect id="Rectangle-path" x="46.4507497" y="22.217027" width="8.27135684" height="2.68023502"></rect>
                            </g>
                        </g>
                    </g>
                </g>
            </g>
        </g>
    </g>
</svg>